#!OML:ASF E:\Steps\Project 1\Capture day 1\Session 2\Subject.ASF
:FULLY-SPECIFIED
:DEGREES
441
root 9.29783 16.3733 12.2231 -153.735 2.05694 178.418
lowerback -27.4554 -2.62473 -5.8267
upperback -2.88737 -0.793485 -0.388686
thorax 12.1434 -0.298008 2.69803
lowerneck 1.51703 -0.485426 -3.59014
upperneck 6.38775 -0.683333 6.14724
head 1.8029 -0.196859 2.59402
rclavicle -4.22417e-015 -1.31198e-014
rhumerus -37.8565 -16.4873 -81.625
rradius 32.0122
rwrist -1.31533
rhand -8.12059 -51.2755
rfingers 7.12502
rthumb 17.7928 -80.4815
lclavicle -4.22417e-015 -1.31198e-014
lhumerus -29.5367 1.05407 84.9857
lradius 20.8472
lwrist -5.72446
lhand -21.8946 -13.5575
lfingers 7.12502
lthumb 4.51056 16.3745
rfemur -22.9105 8.05995 17.2135
rtibia 6.14425
rfoot -19.1479 -6.87778
rtoes -18.457
lfemur -23.0191 -8.81268 -19.7262
ltibia 6.96848
lfoot -8.16259 8.71049
ltoes -32.7642
442
root 9.30027 16.3724 12.2143 -153.826 2.07291 178.309
lowerback -27.4512 -2.66691 -5.92885
upperback -2.84564 -0.821759 -0.396595
thorax 12.194 -0.320698 2.73646
lowerneck 1.42156 -0.463958 -3.62638
upperneck 6.5049 -0.654699 6.15878
head 1.85697 -0.179523 2.6068
rclavicle 3.18055e-015 -1.47101e-014
rhumerus -37.751 -16.528 -81.6028
rradius 31.9855
rwrist -1.23241
rhand -7.93578 -51.6968
rfingers 7.12502
rthumb 17.9706 -80.8865
lclavicle 3.18055e-015 -1.47101e-014
lhumerus -29.473 1.3896 84.8987
lradius 20.7656
lwrist -5.89698
lhand -21.6802 -13.3975
lfingers 7.12502
lthumb 4.71755 16.53
rfemur -22.775 7.90838 17.1392
rtibia 6.16729
rfoot -19.21 -6.76681
rtoes -18.4302
lfemur -22.9092 -8.73569 -19.9109
ltibia 7.05369
lfoot -8.1847 8.6357
ltoes -32.962
443
root 9.30321 16.3714 12.2052 -153.89 2.08551 178.235
lowerback -27.4598 -2.69087 -5.98796
upperback -2.8336 -0.834365 -0.401715
thorax 12.2147 -0.330508 2.75968
lowerneck 1.3361 -0.452237 -3.65551
upperneck 6.64925 -0.638321 6.17325
head 1.91891 -0.167066 2.61955
rclavicle -2.73329e-015 -1.51076e-014
rhumerus -37.7728 -16.4302 -81.6282
rradius 32.0812
rwrist -1.24172
rhand -7.96332 -51.8416
rfingers 7.12502
rthumb 17.9441 -81.0338
lclavicle -2.73329e-015 -1.51076e-014
lhumerus -29.4232 1.66521 84.8135
lradius 20.6652
lwrist -6.02628
lhand -21.596 -13.2798
lfingers 7.12502
lthumb 4.79884 16.6459
rfemur -22.6623 7.85081 17.0942
rtibia 6.20789
rfoot -19.2955 -6.74641
rtoes -18.396
lfemur -22.8418 -8.64842 -20.0278
ltibia 7.11011
lfoot -8.17041 8.52653
ltoes -32.4552
444
root 9.30858 16.3705 12.1969 -153.892 2.13995 178.21
lowerback -27.4255 -2.71498 -6.0433
upperback -2.91433 -0.842194 -0.395165
thorax 12.1048 -0.326776 2.79778
lowerneck 1.2034 -0.443651 -3.68419
upperneck 6.90304 -0.624568 6.18505
head 2.02548 -0.152345 2.63317
rclavicle -3.03147e-015 2.54444e-014
rhumerus -37.9423 -16.3637 -81.584
rradius 32.1313
rwrist -1.32159
rhand -8.05379 -51.5559
rfingers 7.12502
rthumb 17.8571 -80.7561
lclavicle -3.03147e-015 2.54444e-014
lhumerus -29.5416 1.7818 84.7318
lradius 20.6572
lwrist -6.0205
lhand -21.6038 -13.1869
lfingers 7.12502
lthumb 4.79139 16.739
rfemur -22.6386 7.95432 17.0601
rtibia 6.18313
rfoot -19.2694 -6.82599
rtoes -18.8576
lfemur -22.8317 -8.66578 -20.039
ltibia 7.15225
lfoot -8.18924 8.58198
ltoes -32.472
445
root 9.31531 16.3688 12.1871 -153.872 2.20959 178.204
lowerback -27.4006 -2.71379 -6.10544
upperback -3.0069 -0.813006 -0.384512
thorax 11.9829 -0.304932 2.85847
lowerneck 1.09157 -0.457587 -3.71628
upperneck 7.15111 -0.640704 6.20669
head 2.12871 -0.15237 2.65044
rclavicle 3.8763e-015 -3.10104e-014
rhumerus -38.1233 -16.4192 -81.447
rradius 32.1335
rwrist -1.37286
rhand -8.10449 -51.351
rfingers 7.12502
rthumb 17.8083 -80.5556
lclavicle 3.8763e-015 -3.10104e-014
lhumerus -29.627 1.80566 84.6866
lradius 20.5722
lwrist -6.02619
lhand -21.5105 -13.3201
lfingers 7.12502
lthumb 4.88141 16.6036
rfemur -22.5892 8.12212 17.0388
rtibia 6.09174
rfoot -19.1955 -6.95369
rtoes -19.669
lfemur -22.8435 -8.58594 -20.0454
ltibia 7.21461
lfoot -8.2697 8.5644
ltoes -32.8582
446
root 9.32017 16.3657 12.1752 -153.848 2.27517 178.22
lowerback -27.537 -2.66848 -6.09775
upperback -3.00867 -0.738048 -0.399297
thorax 12.0453 -0.269101 2.865
lowerneck 1.0324 -0.486327 -3.72936
upperneck 7.27345 -0.678587 6.24504
head 2.18252 -0.166135 2.66754
rclavicle 5.96354e-016 -9.93923e-015
rhumerus -38.1894 -16.4889 -81.3992
rradius 32.2054
rwrist -1.42847
rhand -8.02336 -51.8045
rfingers 7.12502
rthumb 17.8864 -81.002
lclavicle 5.96354e-016 -9.93923e-015
lhumerus -29.5733 1.77924 84.6417
lradius 20.4285
lwrist -6.10414
lhand -21.5233 -13.6874
lfingers 7.12502
lthumb 4.86906 16.2366
rfemur -22.5319 8.22909 17.0581
rtibia 6.0589
rfoot -19.2005 -6.9613
rtoes -19.5509
lfemur -22.8021 -8.41165 -20.0755
ltibia 7.20511
lfoot -8.26604 8.48936
ltoes -33.4136
447
root 9.3233 16.363 12.1653 -153.84 2.27778 178.318
lowerback -27.6454 -2.61916 -5.96334
upperback -3.01895 -0.701233 -0.402557
thorax 12.0848 -0.244344 2.79773
lowerneck 0.97637 -0.501667 -3.73703
upperneck 7.40475 -0.698214 6.28085
head 2.23774 -0.170361 2.68318
rclavicle 2.28602e-015 -1.98785e-014
rhumerus -38.2778 -16.5434 -81.3796
rradius 32.2819
rwrist -1.35185
rhand -7.89062 -52.0655
rfingers 7.12502
rthumb 18.0141 -81.2513
lclavicle 2.28602e-015 -1.98785e-014
lhumerus -29.5922 1.62154 84.625
lradius 20.3729
lwrist -5.97378
lhand -21.6025 -13.845
lfingers 7.12502
lthumb 4.79264 16.0808
rfemur -22.5261 8.22869 17.1994
rtibia 6.1055
rfoot -19.1713 -6.86107
rtoes -18.8769
lfemur -22.7281 -8.3989 -19.9476
ltibia 7.14681
lfoot -8.27873 8.49496
ltoes -32.9852
